<svg xmlns="http://www.w3.org/2000/svg" xmlns:xlink="http://www.w3.org/1999/xlink" width="500" zoomAndPan="magnify" viewBox="0 0 375 374.999991" height="500" preserveAspectRatio="xMidYMid meet" version="1.2"><defs><clipPath id="b30fd85649"><path d="M 149.320312 91 L 185 91 L 185 127 L 149.320312 127 Z M 149.320312 91 "/></clipPath><clipPath id="a97d5befc3"><path d="M 100 158.976562 L 277 158.976562 L 277 374.035156 L 100 374.035156 Z M 100 158.976562 "/></clipPath><clipPath id="9d4b1c86db"><path d="M 48.808594 86.789062 L 137.933594 86.789062 L 137.933594 265 L 48.808594 265 Z M 48.808594 86.789062 "/></clipPath><clipPath id="4d74d29fa6"><path d="M 78 0 L 225 0 L 225 76 L 78 76 Z M 78 0 "/></clipPath><clipPath id="4ef580c1a5"><path d="M 242.484375 23.625 L 209.6875 106.496094 L 78.175781 54.453125 L 110.96875 -28.417969 Z M 242.484375 23.625 "/></clipPath><clipPath id="7dead59d87"><path d="M 242.484375 23.625 L 209.6875 106.496094 L -33.519531 10.253906 L -0.726562 -72.617188 Z M 242.484375 23.625 "/></clipPath></defs><g id="642de78ef5"><g clip-rule="nonzero" clip-path="url(#b30fd85649)"><path style=" stroke:none;fill-rule:nonzero;fill:#36eee0;fill-opacity:1;" d="M 184.371094 109.09375 C 184.371094 118.78125 176.515625 126.636719 166.828125 126.636719 C 157.140625 126.636719 149.285156 118.78125 149.285156 109.09375 C 149.285156 99.40625 157.140625 91.550781 166.828125 91.550781 C 176.515625 91.550781 184.371094 99.40625 184.371094 109.09375 M 177.976562 109.09375 C 177.976562 102.9375 172.984375 97.949219 166.828125 97.949219 C 160.671875 97.949219 155.679688 102.9375 155.679688 109.09375 C 155.679688 115.25 160.671875 120.242188 166.828125 120.242188 C 172.984375 120.242188 177.976562 115.25 177.976562 109.09375 Z M 177.976562 109.09375 "/></g><path style=" stroke:none;fill-rule:nonzero;fill:#36eee0;fill-opacity:1;" d="M 285.71875 174.988281 C 285.71875 186.960938 276.015625 196.664062 264.042969 196.664062 C 252.074219 196.664062 242.371094 186.960938 242.371094 174.988281 C 242.371094 163.019531 252.074219 153.3125 264.042969 153.3125 C 276.015625 153.3125 285.71875 163.019531 285.71875 174.988281 M 279.324219 174.988281 C 279.324219 166.550781 272.484375 159.710938 264.042969 159.710938 C 255.605469 159.710938 248.765625 166.550781 248.765625 174.988281 C 248.765625 183.429688 255.605469 190.269531 264.042969 190.269531 C 272.484375 190.269531 279.324219 183.429688 279.324219 174.988281 Z M 279.324219 174.988281 "/><path style=" stroke:none;fill-rule:nonzero;fill:#36eee0;fill-opacity:1;" d="M 290.714844 87.492188 C 290.714844 94.503906 285.027344 100.191406 278.011719 100.191406 C 270.996094 100.191406 265.308594 94.503906 265.308594 87.492188 C 265.308594 80.476562 270.996094 74.789062 278.011719 74.789062 C 285.027344 74.789062 290.714844 80.476562 290.714844 87.492188 M 284.320312 87.492188 C 284.320312 84.007812 281.496094 81.183594 278.011719 81.183594 C 274.527344 81.183594 271.707031 84.007812 271.707031 87.492188 C 271.707031 90.972656 274.527344 93.796875 278.011719 93.796875 C 281.496094 93.796875 284.320312 90.972656 284.320312 87.492188 Z M 284.320312 87.492188 "/><path style=" stroke:none;fill-rule:nonzero;fill:#36eee0;fill-opacity:1;" d="M 199.050781 211.457031 C 199.050781 218.386719 193.179688 223.71875 186.300781 223.71875 C 179.417969 223.71875 173.550781 218.386719 173.550781 211.457031 C 173.550781 204.527344 179.417969 199.195312 186.300781 199.195312 C 193.179688 199.195312 199.050781 204.527344 199.050781 211.457031 M 192.65625 211.457031 C 192.65625 208.371094 189.96875 205.589844 186.300781 205.589844 C 182.628906 205.589844 179.945312 208.371094 179.945312 211.457031 C 179.945312 214.542969 182.628906 217.324219 186.300781 217.324219 C 189.96875 217.324219 192.65625 214.542969 192.65625 211.457031 Z M 192.65625 211.457031 "/><path style=" stroke:none;fill-rule:nonzero;fill:#36eee0;fill-opacity:1;" d="M 309.09375 257.332031 C 309.09375 272.664062 299.03125 286.355469 285.214844 286.355469 C 271.402344 286.355469 261.339844 272.664062 261.339844 257.332031 C 261.339844 242.003906 271.402344 228.308594 285.214844 228.308594 C 299.03125 228.308594 309.09375 242.003906 309.09375 257.332031 M 302.699219 257.332031 C 302.699219 244.136719 294.246094 234.707031 285.214844 234.707031 C 276.1875 234.707031 267.734375 244.136719 267.734375 257.332031 C 267.734375 270.53125 276.1875 279.960938 285.214844 279.960938 C 294.246094 279.960938 302.699219 270.53125 302.699219 257.332031 Z M 302.699219 257.332031 "/><path style=" stroke:none;fill-rule:nonzero;fill:#36eee0;fill-opacity:1;" d="M 279.902344 97.394531 L 267.703125 153.515625 C 267.460938 154.640625 266.347656 155.351562 265.222656 155.109375 C 264.101562 154.863281 263.386719 153.753906 263.628906 152.628906 L 275.828125 96.507812 C 276.074219 95.382812 277.183594 94.671875 278.308594 94.914062 C 279.433594 95.160156 280.148438 96.269531 279.902344 97.394531 Z M 279.902344 97.394531 "/><path style=" stroke:none;fill-rule:nonzero;fill:#36eee0;fill-opacity:1;" d="M 273.304688 193.667969 L 284.945312 232.371094 C 285.273438 233.472656 284.648438 234.636719 283.546875 234.964844 C 282.445312 235.296875 281.285156 234.671875 280.953125 233.570312 L 269.3125 194.867188 C 268.980469 193.765625 269.605469 192.601562 270.710938 192.273438 C 271.8125 191.941406 272.972656 192.566406 273.304688 193.667969 Z M 273.304688 193.667969 "/><path style=" stroke:none;fill-rule:nonzero;fill:#36eee0;fill-opacity:1;" d="M 197.566406 215.871094 L 265.839844 247.351562 C 266.882812 247.832031 267.339844 249.070312 266.859375 250.117188 C 266.375 251.164062 265.136719 251.617188 264.09375 251.136719 L 195.820312 219.65625 C 194.773438 219.171875 194.316406 217.933594 194.800781 216.890625 C 195.28125 215.84375 196.519531 215.386719 197.566406 215.871094 Z M 197.566406 215.871094 "/><path style=" stroke:none;fill-rule:nonzero;fill:#36eee0;fill-opacity:1;" d="M 194.980469 203.675781 L 244.070312 178.90625 C 245.097656 178.390625 246.351562 178.800781 246.871094 179.828125 C 247.390625 180.859375 246.976562 182.109375 245.949219 182.628906 L 196.859375 207.398438 C 195.832031 207.914062 194.578125 207.503906 194.058594 206.476562 C 193.539062 205.449219 193.953125 204.195312 194.980469 203.675781 Z M 194.980469 203.675781 "/><path style=" stroke:none;fill-rule:nonzero;fill:#36eee0;fill-opacity:1;" d="M 181.195312 120.027344 L 249.308594 161.890625 C 250.289062 162.496094 250.597656 163.777344 249.996094 164.757812 C 249.390625 165.738281 248.109375 166.046875 247.128906 165.445312 L 179.015625 123.578125 C 178.03125 122.976562 177.726562 121.691406 178.328125 120.710938 C 178.933594 119.730469 180.214844 119.425781 181.195312 120.027344 Z M 181.195312 120.027344 "/><path style=" stroke:none;fill-rule:nonzero;fill:#36eee0;fill-opacity:1;" d="M 170.207031 124.117188 L 185.296875 197.976562 C 185.527344 199.101562 184.800781 200.203125 183.671875 200.433594 C 182.542969 200.664062 181.441406 199.9375 181.210938 198.808594 L 166.121094 124.953125 C 165.890625 123.824219 166.617188 122.722656 167.746094 122.492188 C 168.875 122.261719 169.976562 122.992188 170.207031 124.117188 Z M 170.207031 124.117188 "/><path style=" stroke:none;fill-rule:nonzero;fill:#36eee0;fill-opacity:1;" d="M 182.320312 103.800781 L 267.863281 88.558594 C 268.996094 88.355469 270.078125 89.113281 270.277344 90.246094 C 270.480469 91.378906 269.726562 92.460938 268.59375 92.664062 L 183.050781 107.90625 C 181.917969 108.105469 180.835938 107.351562 180.632812 106.21875 C 180.433594 105.085938 181.1875 104.003906 182.320312 103.800781 Z M 182.320312 103.800781 "/><g clip-rule="nonzero" clip-path="url(#a97d5befc3)"><path style=" stroke:none;fill-rule:nonzero;fill:#f652a0;fill-opacity:1;" d="M 162.789062 158.976562 C 159.085938 158.976562 156.085938 163.292969 156.085938 166.996094 L 156.085938 170.167969 C 156.085938 172.789062 157.597656 175.042969 159.78125 176.140625 C 159.75 176.574219 159.71875 177.015625 159.71875 177.457031 L 159.71875 240.542969 C 158.726562 242.414062 157.761719 244.359375 156.710938 246.285156 L 102.5 344.355469 C 93.769531 360.402344 110.382812 374.050781 120.164062 374.050781 L 255.820312 374.050781 C 265.605469 374.050781 282.398438 360.730469 273.488281 344.355469 L 219.277344 246.285156 C 218.230469 244.359375 217.261719 242.414062 216.273438 240.542969 L 216.273438 177.457031 C 216.273438 177.015625 216.242188 176.578125 216.207031 176.140625 C 218.394531 175.042969 219.90625 172.789062 219.90625 170.167969 L 219.90625 166.996094 C 219.90625 163.292969 216.925781 158.976562 213.222656 158.976562 Z M 162.789062 158.976562 "/></g><path style=" stroke:none;fill-rule:nonzero;fill:#ffffff;fill-opacity:1;" d="M 177.574219 238.238281 L 198.496094 238.238281 C 206.820312 238.238281 209.542969 245.992188 213.519531 253.347656 L 260.765625 340.691406 C 270.308594 358.332031 254.0625 366.09375 245.738281 366.09375 L 130.328125 366.09375 C 122.007812 366.09375 106.800781 356.410156 115.304688 340.691406 L 162.550781 253.347656 C 166.527344 245.992188 169.25 238.238281 177.574219 238.238281 Z M 177.574219 238.238281 "/><path style=" stroke:none;fill-rule:nonzero;fill:#ffffff;fill-opacity:1;" d="M 166.550781 172.542969 L 209.46875 172.542969 L 209.46875 251.195312 L 166.550781 251.195312 Z M 166.550781 172.542969 "/><path style=" stroke:none;fill-rule:nonzero;fill:#ffffff;fill-opacity:1;" d="M 162.742188 170.652344 L 162.742188 167.535156 C 162.742188 167.15625 162.8125 166.789062 162.960938 166.4375 C 163.105469 166.085938 163.3125 165.773438 163.582031 165.503906 C 163.851562 165.234375 164.164062 165.027344 164.515625 164.882812 C 164.867188 164.734375 165.234375 164.664062 165.613281 164.664062 L 210.339844 164.664062 C 210.71875 164.664062 211.085938 164.734375 211.4375 164.882812 C 211.789062 165.027344 212.101562 165.234375 212.371094 165.503906 C 212.640625 165.773438 212.847656 166.085938 212.992188 166.4375 C 213.136719 166.789062 213.210938 167.15625 213.210938 167.535156 L 213.210938 170.652344 C 213.210938 171.035156 213.136719 171.398438 212.992188 171.75 C 212.847656 172.105469 212.640625 172.414062 212.371094 172.683594 C 212.101562 172.953125 211.789062 173.160156 211.4375 173.308594 C 211.085938 173.453125 210.71875 173.527344 210.339844 173.527344 L 165.613281 173.527344 C 165.234375 173.527344 164.867188 173.453125 164.515625 173.308594 C 164.164062 173.160156 163.851562 172.953125 163.582031 172.683594 C 163.3125 172.414062 163.105469 172.105469 162.960938 171.75 C 162.8125 171.398438 162.742188 171.035156 162.742188 170.652344 Z M 162.742188 170.652344 "/><path style=" stroke:none;fill-rule:nonzero;fill:#f652a0;fill-opacity:1;" d="M 215.589844 266.210938 L 253.296875 337.890625 C 261.550781 353.582031 247.371094 360.347656 240.011719 360.347656 L 137.984375 360.347656 C 130.625 360.347656 117.15625 351.769531 124.703125 337.890625 L 161.671875 269.902344 C 194.355469 282.722656 206.242188 247.089844 215.589844 266.210938 Z M 215.589844 266.210938 "/><path style=" stroke:none;fill-rule:nonzero;fill:#ffffff;fill-opacity:1;" d="M 192.640625 318.320312 C 192.640625 325.046875 187.1875 330.5 180.457031 330.5 C 173.730469 330.5 168.277344 325.046875 168.277344 318.320312 C 168.277344 311.59375 173.730469 306.140625 180.457031 306.140625 C 187.1875 306.140625 192.640625 311.59375 192.640625 318.320312 Z M 192.640625 318.320312 "/><path style=" stroke:none;fill-rule:nonzero;fill:#ffffff;fill-opacity:1;" d="M 175.324219 303.75 C 175.324219 307.726562 172.101562 310.949219 168.125 310.949219 C 164.152344 310.949219 160.929688 307.726562 160.929688 303.75 C 160.929688 299.773438 164.152344 296.550781 168.125 296.550781 C 172.101562 296.550781 175.324219 299.773438 175.324219 303.75 Z M 175.324219 303.75 "/><path style=" stroke:none;fill-rule:nonzero;fill:#ffffff;fill-opacity:1;" d="M 203.738281 289.730469 C 203.738281 292.078125 201.839844 293.976562 199.492188 293.976562 C 197.148438 293.976562 195.25 292.078125 195.25 289.730469 C 195.25 287.386719 197.148438 285.488281 199.492188 285.488281 C 201.839844 285.488281 203.738281 287.386719 203.738281 289.730469 Z M 203.738281 289.730469 "/><path style=" stroke:none;fill-rule:nonzero;fill:#f652a0;fill-opacity:1;" d="M 198.945312 174.179688 C 199.355469 174.179688 199.75 174.257812 200.128906 174.414062 C 200.507812 174.570312 200.84375 174.792969 201.132812 175.082031 C 201.425781 175.375 201.648438 175.707031 201.804688 176.085938 C 201.960938 176.464844 202.039062 176.859375 202.039062 177.269531 L 202.039062 238.394531 C 202.039062 238.804688 201.960938 239.199219 201.804688 239.578125 C 201.648438 239.957031 201.425781 240.292969 201.132812 240.582031 C 200.84375 240.875 200.507812 241.097656 200.128906 241.253906 C 199.75 241.410156 199.355469 241.488281 198.945312 241.488281 C 198.539062 241.488281 198.144531 241.410156 197.761719 241.253906 C 197.382812 241.097656 197.050781 240.875 196.761719 240.582031 C 196.46875 240.292969 196.246094 239.957031 196.089844 239.578125 C 195.933594 239.199219 195.855469 238.804688 195.855469 238.394531 L 195.855469 177.269531 C 195.855469 176.859375 195.933594 176.464844 196.089844 176.085938 C 196.246094 175.707031 196.46875 175.375 196.761719 175.082031 C 197.050781 174.792969 197.382812 174.570312 197.765625 174.414062 C 198.144531 174.257812 198.539062 174.179688 198.945312 174.179688 Z M 198.945312 174.179688 "/><g clip-rule="nonzero" clip-path="url(#9d4b1c86db)"><path style=" stroke:none;fill-rule:nonzero;fill:#f652a0;fill-opacity:1;" d="M 70.273438 53.308594 C 70.273438 59.222656 65.476562 64.019531 59.5625 64.019531 C 53.644531 64.019531 48.851562 59.222656 48.851562 53.308594 C 48.851562 47.394531 53.644531 42.597656 59.5625 42.597656 C 65.476562 42.597656 70.273438 47.394531 70.273438 53.308594 Z M 99.148438 4.644531 C 94.410156 4.644531 90.566406 8.488281 90.566406 13.230469 C 90.566406 17.96875 94.410156 21.8125 99.148438 21.8125 C 103.890625 21.8125 107.734375 17.96875 107.734375 13.230469 C 107.734375 8.488281 103.890625 4.644531 99.148438 4.644531 Z M 81.980469 96.234375 C 77.242188 96.234375 73.398438 100.074219 73.398438 104.816406 C 73.398438 109.558594 77.242188 113.398438 81.980469 113.398438 C 86.722656 113.398438 90.566406 109.558594 90.566406 104.816406 C 90.566406 100.074219 86.722656 96.234375 81.980469 96.234375 Z M 129.308594 247.671875 C 124.566406 247.671875 120.722656 251.515625 120.722656 256.257812 C 120.722656 260.996094 124.566406 264.839844 129.308594 264.839844 C 134.050781 264.839844 137.890625 260.996094 137.890625 256.257812 C 137.890625 251.515625 134.050781 247.671875 129.308594 247.671875 Z M 59.5625 146.320312 C 53.644531 146.320312 48.851562 151.117188 48.851562 157.03125 C 48.851562 162.945312 53.644531 167.742188 59.5625 167.742188 C 65.476562 167.742188 70.273438 162.945312 70.273438 157.03125 C 70.273438 151.117188 65.476562 146.320312 59.5625 146.320312 Z M 120.722656 113.398438 C 112.164062 113.398438 105.222656 120.339844 105.222656 128.902344 C 105.222656 137.464844 112.164062 144.40625 120.722656 144.40625 C 129.285156 144.40625 136.226562 137.464844 136.226562 128.902344 C 136.226562 120.339844 129.285156 113.398438 120.722656 113.398438 Z M 95.355469 192.320312 C 86.796875 192.320312 79.855469 199.261719 79.855469 207.824219 C 79.855469 216.382812 86.796875 223.324219 95.355469 223.324219 C 103.917969 223.324219 110.859375 216.382812 110.859375 207.824219 C 110.859375 199.261719 103.917969 192.320312 95.355469 192.320312 Z M 95.355469 192.320312 "/></g><g clip-rule="nonzero" clip-path="url(#4d74d29fa6)"><g clip-rule="nonzero" clip-path="url(#4ef580c1a5)"><g clip-rule="nonzero" clip-path="url(#7dead59d87)"><path style=" stroke:none;fill-rule:nonzero;fill:#f652a0;fill-opacity:1;" d="M 189.335938 25.675781 C 183.835938 23.5 181.144531 17.277344 183.320312 11.773438 C 185.496094 6.273438 191.71875 3.582031 197.21875 5.757812 C 202.71875 7.933594 205.414062 14.15625 203.238281 19.65625 C 201.0625 25.15625 194.835938 27.851562 189.335938 25.675781 Z M 223.960938 70.433594 C 225.703125 66.023438 223.546875 61.039062 219.136719 59.292969 C 214.730469 57.546875 209.742188 59.707031 207.996094 64.117188 C 206.253906 68.523438 208.410156 73.511719 212.820312 75.257812 C 217.226562 77 222.214844 74.839844 223.960938 70.433594 Z M 145.117188 20.769531 C 146.859375 16.359375 144.699219 11.375 140.292969 9.628906 C 135.882812 7.886719 130.898438 10.042969 129.152344 14.453125 C 127.40625 18.859375 129.566406 23.847656 133.976562 25.59375 C 138.382812 27.335938 143.371094 25.175781 145.117188 20.769531 Z M -13.113281 9.050781 C -11.371094 4.644531 -13.527344 -0.34375 -17.9375 -2.089844 C -22.34375 -3.832031 -27.332031 -1.671875 -29.078125 2.734375 C -30.820312 7.144531 -28.660156 12.128906 -24.253906 13.875 C -19.847656 15.617188 -14.859375 13.460938 -13.113281 9.050781 Z M 106.789062 -18.507812 C 108.96875 -24.007812 106.273438 -30.234375 100.773438 -32.410156 C 95.273438 -34.585938 89.050781 -31.890625 86.871094 -26.390625 C 84.695312 -20.890625 87.390625 -14.667969 92.890625 -12.492188 C 98.390625 -10.3125 104.613281 -13.007812 106.789062 -18.507812 Z M 114.898438 50.476562 C 118.046875 42.515625 114.148438 33.507812 106.1875 30.359375 C 98.226562 27.207031 89.21875 31.109375 86.066406 39.070312 C 82.917969 47.03125 86.816406 56.035156 94.777344 59.1875 C 102.738281 62.335938 111.746094 58.4375 114.898438 50.476562 Z M 50.847656 -2.148438 C 53.996094 -10.109375 50.097656 -19.117188 42.136719 -22.269531 C 34.175781 -25.417969 25.167969 -21.519531 22.019531 -13.558594 C 18.867188 -5.597656 22.769531 3.410156 30.730469 6.558594 C 38.691406 9.710938 47.695312 5.8125 50.847656 -2.148438 Z M 50.847656 -2.148438 "/></g></g></g></g></svg>