<svg xmlns="http://www.w3.org/2000/svg" xmlns:xlink="http://www.w3.org/1999/xlink" width="500" zoomAndPan="magnify" viewBox="0 0 375 374.999991" height="500" preserveAspectRatio="xMidYMid meet" version="1.2"><defs><clipPath id="46e747ce7f"><path d="M 5.171875 5.171875 L 369.671875 5.171875 L 369.671875 369.671875 L 5.171875 369.671875 Z M 5.171875 5.171875 "/></clipPath></defs><g id="9706ce67c3"><g clip-rule="nonzero" clip-path="url(#46e747ce7f)"><path style=" stroke:none;fill-rule:nonzero;fill:#88ccf1;fill-opacity:1;" d="M 369.671875 187.417969 C 369.671875 288.074219 288.074219 369.671875 187.417969 369.671875 C 86.769531 369.671875 5.171875 288.074219 5.171875 187.417969 C 5.171875 86.765625 86.769531 5.171875 187.417969 5.171875 C 288.074219 5.171875 369.671875 86.765625 369.671875 187.417969 "/></g><path style=" stroke:none;fill-rule:nonzero;fill:#ffffff;fill-opacity:1;" d="M 198.414062 198.367188 C 179.203125 217.582031 148.050781 217.582031 128.835938 198.367188 C 109.699219 179.230469 109.699219 148.078125 128.890625 128.835938 C 148.074219 109.699219 179.175781 109.699219 198.335938 128.859375 C 217.582031 148.105469 217.582031 179.207031 198.414062 198.367188 Z M 105.722656 105.667969 C 73.714844 137.726562 73.714844 189.585938 105.667969 221.535156 C 133.691406 249.5625 176.945312 253.058594 208.792969 231.9375 L 269.964844 293.109375 L 293.132812 269.9375 L 231.988281 208.742188 C 253.035156 177.03125 249.554688 133.746094 221.53125 105.667969 C 189.578125 73.769531 137.699219 73.746094 105.722656 105.667969 "/></g></svg>